<svg xmlns="http://www.w3.org/2000/svg" xmlns:xlink="http://www.w3.org/1999/xlink" width="692" height="499.877" xmlns:v="https://vecta.io/nano"><style><![CDATA[.B{fill:#ccc}.C{fill:#3f3d56}.D{fill:#6c63ff}.E{fill:#2f2e41}.F{fill:#f2f2f2}.G{fill:#ffb8b8}.H{fill:#e6e6e6}]]></style><g class="B"><path d="M691 496.043H1a1 1 0 1 1 0-2h690a1 1 0 1 1 0 2z"/><path d="M622.704 321.641h-406a6.5 6.5 0 1 0 0 13h11.5v155.5a6.5 6.5 0 1 0 13 0l.099-155.5h355.901v155.5a6.5 6.5 0 1 0 13 0V338.069l1.891-3.427h10.609a6.5 6.5 0 1 0 0-13z"/></g><path d="M441.794 325.043H318.812c-4.958-.006-8.976-4.024-8.982-8.982v-67.709c.006-4.958 4.024-8.976 8.982-8.982h122.982c4.958.006 8.976 4.024 8.982 8.982v67.709c-.006 4.958-4.024 8.976-8.982 8.982z" class="C"/><path d="M441.793 246.283h-122.98c-1.142.002-2.068.928-2.07 2.07v67.71c.002 1.142.928 2.068 2.07 2.07h122.98c1.142-.002 2.067-.928 2.07-2.07v-67.71c-.002-1.142-.928-2.068-2.07-2.07z" fill="#fff"/><path d="M390.792 294.221s-14.722-3.392-22.82 2.827 10.306 20.355 10.306 20.355z" class="E"/><circle cx="381.024" cy="273.924" r="13.887" fill="#a0616a"/><path d="M370.286 254.43a9.9 9.9 0 0 1 9.126-4.856c1.905.239 3.764.759 5.515 1.544l9.078 3.541c2.349.916 4.922 2.039 5.941 4.345.946 2.141.24 4.613-.474 6.841l-3.397 10.593c-.376-2.398-1.022-4.745-1.925-6.998-.918-2.268-2.576-4.158-4.704-5.364-2.358-1.21-5.137-1.185-7.785-1.057-3.749.18-7.826.657-10.489 3.302-1.414 1.502-2.373 3.374-2.765 5.399a32.5 32.5 0 0 0-.58 6.112 50.67 50.67 0 0 1-3.869-8.295c-.853-2.142-1.339-4.412-1.438-6.715-.089-2.323.682-4.597 2.165-6.387 1.536-1.784 3.95-2.544 6.231-1.961z" class="E"/><path d="M414.183 306.263a2.47 2.47 0 0 0-2.07-1.79.86.86 0 0 0-.1-.06l-20.731-11.618c-1.23-.689-2.784-.289-3.528.908l-5.67 9.18-8.54-8.54-.136-.136c-.905-.905-2.328-1.029-3.376-.295l-17.038 11.931c-.03 0-.06.01-.09.01-1.68.28-2.94 1.689-3.03 3.39l-.44 8.89h68.04z" class="D"/><path d="M452.158 316.752H439.03a1.38 1.38 0 0 0-1.382-1.382h-4.145a1.38 1.38 0 0 0-1.382 1.382h-4.145a1.38 1.38 0 0 0-1.382-1.382h-4.145a1.38 1.38 0 0 0-1.382 1.382h-4.145a1.38 1.38 0 0 0-1.382-1.382h-4.145a1.38 1.38 0 0 0-1.382 1.382h-4.145a1.38 1.38 0 0 0-1.382-1.382h-4.145a1.38 1.38 0 0 0-1.382 1.382h-4.145a1.38 1.38 0 0 0-1.382-1.382h-4.145a1.38 1.38 0 0 0-1.382 1.382h-4.145a1.38 1.38 0 0 0-1.382-1.382h-4.145a1.38 1.38 0 0 0-1.382 1.382h-4.145a1.38 1.38 0 0 0-1.382-1.382h-4.145a1.38 1.38 0 0 0-1.382 1.382h-4.145a1.38 1.38 0 0 0-1.382-1.382h-4.145a1.38 1.38 0 0 0-1.382 1.382h-4.145a1.38 1.38 0 0 0-1.382-1.382h-4.145a1.38 1.38 0 0 0-1.382 1.382h-4.145a1.38 1.38 0 0 0-1.382-1.382h-4.145a1.38 1.38 0 0 0-1.382 1.382h-4.145a1.38 1.38 0 0 0-1.382-1.382h-4.145a1.38 1.38 0 0 0-1.382 1.382h-13.127c-2.287.004-4.139 1.858-4.139 4.145s1.852 4.142 4.139 4.145h143.709c2.289 0 4.145-1.856 4.145-4.145s-1.856-4.145-4.145-4.145z" class="C"/><use xlink:href="#B" class="F"/><use xlink:href="#C" class="D"/><g class="B"><use xlink:href="#D"/><use xlink:href="#D" y="5.082"/><use xlink:href="#D" y="10.164"/><use xlink:href="#D" y="15.245"/></g><use xlink:href="#B" x="-13" y="-29" class="F"/><use xlink:href="#C" x="-13" y="-29" class="C"/><g class="B"><use xlink:href="#D" x="-13" y="-29"/><use xlink:href="#D" x="-13" y="-23.918"/><use xlink:href="#D" x="-13" y="-18.836"/><use xlink:href="#D" x="-13" y="-13.755"/><path d="M354.303 418.043v-24a4 4 0 0 0-4-4h-91a4 4 0 0 0-4 4v24zm-99 9h99v31h-99zm0 40v24a4 4 0 0 0 4 4h91a4 4 0 0 0 4-4v-24z"/></g><g fill="#fff"><circle cx="304.303" cy="405.043" r="3"/><circle cx="304.303" cy="445.043" r="3"/><circle cx="304.464" cy="484.196" r="3"/></g><use xlink:href="#B" x="56" y="70" class="F"/><path d="M344.773 389.992a1.06 1.06 0 0 1-1.059 1.059h-70.826c-5.185.004-9.977-2.759-12.571-7.248s-2.594-10.022 0-14.511 7.386-7.253 12.571-7.248h70.826a1.06 1.06 0 0 1 1.059 1.059 1.06 1.06 0 0 1-1.059 1.059h-70.826a12.39 12.39 0 0 0-12.375 12.387 12.39 12.39 0 0 0 12.375 12.387h70.826a1.06 1.06 0 0 1 1.059 1.059z" class="C"/><g class="B"><use xlink:href="#D" x="56" y="70"/><use xlink:href="#D" x="56" y="75.082"/><use xlink:href="#D" x="56" y="80.164"/><use xlink:href="#D" x="56" y="85.245"/></g><path d="M250.11 183.021V7.521A7.53 7.53 0 0 1 257.632 0H396.36a7.53 7.53 0 0 1 7.521 7.521v175.5a7.53 7.53 0 0 1-7.521 7.521H257.632a7.53 7.53 0 0 1-7.521-7.521zm7.521-181.35a5.86 5.86 0 0 0-5.85 5.85v175.5a5.86 5.86 0 0 0 5.85 5.85H396.36a5.86 5.86 0 0 0 5.85-5.85V7.521a5.86 5.86 0 0 0-5.85-5.85z" class="H"/><path d="M334.775 80.598V44.562c.002-2.076 1.685-3.758 3.761-3.761h30.537c2.076.002 3.758 1.685 3.761 3.761v36.036c-.002 2.076-1.685 3.758-3.761 3.761h-30.537c-2.076-.002-3.758-1.685-3.761-3.761z" class="D"/><path d="M275.44 97.312V61.276c.002-2.076 1.685-3.758 3.761-3.761h30.537c2.076.002 3.758 1.685 3.761 3.761v36.036c-.002 2.076-1.685 3.758-3.761 3.761H279.2c-2.076-.002-3.758-1.685-3.761-3.761z" class="B"/><path d="M323.075 148.291v-36.036c.002-2.076 1.685-3.758 3.761-3.761h30.537c2.076.002 3.758 1.685 3.761 3.761v36.036c-.002 2.076-1.685 3.758-3.761 3.761h-30.537c-2.076-.002-3.758-1.685-3.761-3.761z" fill="#ff6584"/><path d="M505.563 313.043h-31.42a1.94 1.94 0 0 0-.86.2l-7.93 3.97c-.533.227-.88.75-.88 1.33s.346 1.103.88 1.33l7.93 3.97a1.94 1.94 0 0 0 .86.2h31.42a1.65 1.65 0 0 0 1.74-1.53v-7.94a1.65 1.65 0 0 0-1.74-1.53z" class="C"/><path d="M507.303 314.573v7.94a1.65 1.65 0 0 1-1.74 1.53h-6.26v-11h6.26a1.65 1.65 0 0 1 1.74 1.53z" class="D"/><path d="M505.327 253.643c2.878-1.242 6.15-1.197 8.994.123s4.989 3.791 5.897 6.792a10.59 10.59 0 0 1 .32 1.435l43.938 21.788 10.168-6.739 12.652 14.565-15.526 12.61a11.15 11.15 0 0 1-13.301.513l-44.579-30.828a10.51 10.51 0 0 1-1.015.37c-3.001.908-6.247.492-8.922-1.143s-4.526-4.333-5.088-7.418a10.71 10.71 0 0 1-.163-1.34c-.253-4.61 2.39-8.891 6.625-10.729z" class="G"/><g class="C"><path d="M596.841 387.792h-48.01c0 1.38-49.48 2.5-49.48 2.5a12.86 12.86 0 0 0-2.11 2 12.41 12.41 0 0 0-2.9 8v2c.003 6.903 5.597 12.497 12.5 12.5h90c6.901-.006 12.494-5.599 12.5-12.5v-2a12.52 12.52 0 0 0-12.5-12.5z"/><path d="M557.618 498.295h-13v-84h13z"/><path d="M507.617 497.838c0 1.405 19.699.543 44 .543s44 .861 44-.543-19.699-12.543-44-12.543-44 11.139-44 12.543z"/></g><path d="M519.353 487.993l-12.259-.001-5.833-31.797 18.094.001-.002 31.797z" class="G"/><g class="E"><use xlink:href="#E"/><use xlink:href="#F"/></g><path d="M525.353 487.993l-12.259-.001-5.833-31.797 18.094.001-.002 31.797z" class="G"/><g class="E"><use xlink:href="#E" x="6"/><use xlink:href="#F" x="7" y="3"/></g><path d="M495.835 303.844c-10.27-13.661-18.39-28.814-24.075-44.932-.68-1.991.179-4.182 2.032-5.179l35.145-18.832c1.152-.622 2.527-.678 3.726-.151a4.32 4.32 0 0 1 2.461 2.884 102.33 102.33 0 0 0 22.446 41.891 4.32 4.32 0 0 1 1.038 3.647c-.225 1.29-1.033 2.403-2.189 3.018l-35.145 18.832c-1.857.99-4.157.492-5.438-1.177z" class="B"/><path d="M498.233 302.042a1.3 1.3 0 0 0 1.622.335L535 283.545c.346-.18.587-.512.653-.897a1.32 1.32 0 0 0-.325-1.128 105.34 105.34 0 0 1-23.107-43.125 1.32 1.32 0 0 0-.758-.895c-.357-.16-.768-.143-1.11.046l-35.145 18.831a1.3 1.3 0 0 0-.62 1.537c5.584 15.829 13.558 30.711 23.645 44.127z" fill="#fff"/><g class="D"><path d="M612.593 298.821l-27.525 10.459-6.72-18.667a11.17 11.17 0 0 1 5.002-13.5h0a11.17 11.17 0 0 1 14.262 2.784z"/><path d="M542.583 372.781a5 5 0 0 1-2.083-3.549c-3.525-32.91-1.07-58.664 7.506-78.735a24.99 24.99 0 0 1 16.567-14.18l22.25-1.123.115.056c10.31 5.05 16.088 16.262 14.219 27.588-7.156 18.863-13.148 38.503-8.579 54.346a5.12 5.12 0 0 1-.484 3.983c-.675 1.167-1.803 2.002-3.116 2.309l-42.378 10.081c-1.388.33-2.852.047-4.017-.777z"/></g><circle cx="579.396" cy="242.323" r="24.561" class="G"/><g class="B"><use xlink:href="#G"/><use xlink:href="#G" x="7" y="13"/></g><path d="M533.005 325.553l-42.674-33.666c-.34.12-.686.222-1.036.306-3.046.713-6.252.098-8.818-1.691-2.584-1.791-4.27-4.609-4.626-7.733-.589-5.082 2.396-9.902 7.209-11.638 2.951-1.058 6.213-.808 8.968.689s4.74 4.097 5.458 7.149a10.57 10.57 0 0 1 .229 1.452l42.481 24.507 10.572-6.086 11.711 15.332-16.414 11.699c-3.946 2.789-9.254 2.66-13.06-.318z" class="G"/><path d="M567.686 318.947l-24.349-16.557 11.443-16.207a11.17 11.17 0 0 1 13.929-3.64h0a11.17 11.17 0 0 1 5.894 13.283z" class="D"/><path d="M570.391 238.665c-6.313 4.321-14.601 8.762-21.049 4.161-4.234-3.021-5.567-8.615-3.851-13.525 3.087-8.829 11.569-12.715 19.681-15.695 10.544-3.873 22.026-6.954 32.911-4.181s20.506 13.313 18.541 24.373c-1.58 8.894-9.97 16.295-8.779 25.25 1.199 9.012 11.334 13.756 20.281 15.367s18.96 2.128 25.391 8.555c8.203 8.199 6.155 22.853-1.564 31.51s-19.367 12.58-30.654 15.248c-14.955 3.534-31.129 5.392-45.332-.474s-25.256-21.654-21.141-36.46c1.738-6.254 5.832-11.539 9.789-16.685s7.963-10.526 9.472-16.839c1.258-5.261.327-11.369-3.162-15.315-1.302-1.417-1.542-3.512-.594-5.186z" class="E"/><path d="M109.072 357.998c-12.871 4.524-27.171 2.006-37.721-6.645-13.212-11.089-17.354-29.359-20.725-46.275q-4.985-25.018-9.969-50.036l20.872 14.371c15.01 10.335 30.357 21.001 40.75 35.971s14.929 35.405 6.579 51.603" class="H"/><path d="M107.288 418.577c2.112-15.387 4.285-30.973 2.803-46.525-1.316-13.812-5.53-27.303-14.109-38.364a63.82 63.82 0 0 0-16.374-14.837c-1.637-1.034-3.144 1.561-1.514 2.59a60.67 60.67 0 0 1 23.999 28.956c5.225 13.289 6.064 27.776 5.164 41.893-.544 8.537-1.698 17.019-2.861 25.489-.19.795.268 1.601 1.048 1.845a1.51 1.51 0 0 0 1.845-1.048z" class="F"/><path d="M86.941 391.348c-5.52 8.39-15.018 13.292-25.055 12.931-12.683-.602-23.257-9.454-32.775-17.858L.958 361.564l18.633-.892c13.4-.641 27.145-1.239 39.908 2.893s24.533 14.077 26.867 27.287" class="H"/><g class="F"><path d="M113.258 427.422c-10.168-17.991-21.961-37.986-43.035-44.377a48.02 48.02 0 0 0-18.101-1.869c-1.922.166-1.442 3.128.476 2.963 10.221-.849 20.422 1.85 28.886 7.642 8.145 5.544 14.487 13.252 19.854 21.425 3.288 5.007 6.233 10.226 9.178 15.438.941 1.666 3.693.463 2.74-1.222z"/><path d="M129.55 446.359c-.698-8.092-5.842-15.122-13.343-18.237v-10.401H98.762v10.729c-7.122 3.264-11.941 10.104-12.616 17.909l-4.102 47.684h51.608z"/></g><defs ><path id="B" d="M287.079 292.678v27.526h-68.962a13.77 13.77 0 0 1-12.324-20.786 13.77 13.77 0 0 1 12.324-6.739z"/><path id="C" d="M288.773 319.992a1.06 1.06 0 0 1-1.059 1.059h-70.826c-8.01 0-14.504-6.494-14.504-14.504s6.494-14.504 14.504-14.504h70.826a1.06 1.06 0 0 1 1.059 1.059 1.06 1.06 0 0 1-1.059 1.059h-70.826a12.39 12.39 0 0 0-12.375 12.387 12.39 12.39 0 0 0 12.375 12.387h70.826a1.06 1.06 0 0 1 1.059 1.059z"/><path id="D" d="M287.079 299.03h-74.108c-.076.001-.146-.04-.185-.105s-.038-.147 0-.213.109-.106.185-.105h74.108c.116.001.21.095.21.212s-.094.211-.21.212z"/><path id="E" d="M522.48 499.877l-39.531-.001v-.5c0-4.081 1.621-7.994 4.507-10.88s6.799-4.506 10.88-4.506h.001l24.144.001z"/><path id="F" d="M501.017 468.275l-24.441-54.808a20.09 20.09 0 0 1 8.819-25.784l53.013-28.428 24.191-2.058 22.315-2.028.161.272c.206.348 5.004 8.635 1.76 17.722-2.46 6.893-8.859 12.276-19.019 16.002-23.714 8.695-51.109 16.127-61.786 18.918a3.45 3.45 0 0 0-2.211 1.76 3.5 3.5 0 0 0-.196 2.799l22.707 51.015a4.5 4.5 0 0 1-3.809 6.029l-16.967 1.235q-.216.021-.43.021c-1.775-.001-3.384-1.045-4.106-2.667z"/><path id="G" d="M511.243 261.776l-19.142 8.45c-1.516.667-3.286-.019-3.956-1.533l-.473-1.073c-.667-1.516.019-3.286 1.533-3.956l19.142-8.45c1.516-.667 3.286.019 3.956 1.533l.473 1.073c.667 1.516-.019 3.286-1.533 3.956z"/></defs></svg>