<svg xmlns="http://www.w3.org/2000/svg" width="924.766" height="641.989" xmlns:v="https://vecta.io/nano"><path d="M764.224 548.827c3.74-30.078 22.381-59.713 51.066-69.501-11.313 30.958-11.31 64.92.007 95.877 4.408 11.923 10.552 24.725 6.406 36.741-2.58 7.477-8.89 13.197-15.945 16.774s-14.884 5.282-22.615 6.952l-1.522 1.258c-12.273-27.713-21.138-58.025-17.397-88.103z" fill="#f0f0f0"/><g fill="#fff"><path d="M815.574 479.895a119.36 119.36 0 0 0-29.673 67.176 51.4 51.4 0 0 0 .585 16.094 29.48 29.48 0 0 0 7.332 13.674c3.305 3.631 7.106 6.962 9.47 11.333a18.05 18.05 0 0 1 .882 14.736c-2.088 5.988-6.202 10.868-10.392 15.501-4.652 5.144-9.565 10.413-11.543 17.233-.24.826-1.508.406-1.268-.419 3.44-11.865 14.958-18.605 20.451-29.291 2.563-4.987 3.639-10.776 1.236-16.04-2.101-4.603-6.018-8.042-9.396-11.689a31.46 31.46 0 0 1-7.667-13.103 47.52 47.52 0 0 1-1.201-16.012 115.8 115.8 0 0 1 8.457-35.191c5.232-12.828 12.619-24.667 21.843-35.005.571-.64 1.451.366.884 1.002z"/><path d="M786.261 538.987a17.91 17.91 0 0 1-13.631-18.759c.068-.857 1.403-.791 1.335.067-.634 8.148 4.763 15.543 12.716 17.424.836.199.413 1.466-.419 1.268zm5.639 36.232c7.455-4.452 12.959-11.55 15.413-19.879.243-.825 1.511-.406 1.268.419a35.9 35.9 0 0 1-16.081 20.653c-.741.439-1.338-.756-.601-1.193zm7.418-72.884c3.08 1.464 6.69 1.28 9.606-.488.735-.449 1.331.747.601 1.193a11.36 11.36 0 0 1-10.626.563.69.69 0 0 1-.425-.844.67.67 0 0 1 .844-.425z"/></g><path d="M902.725 533.049l-1.353.891c-6.041 3.972-11.749 8.429-17.069 13.326l-1.24 1.139c-12.69 11.934-23.053 26.121-30.564 41.839a136.67 136.67 0 0 0-7.486 19.369c-2.762 9.166-5.028 19.324-10.496 26.821-.562.789-1.172 1.542-1.827 2.255h-49.415c-.112-.056-.225-.101-.338-.158l-1.973.09.248-1.06c.045-.203.101-.406.146-.609.034-.135.068-.271.09-.395a1.86 1.86 0 0 1 .034-.124c.023-.124.057-.237.079-.35q.744-3.027 1.533-6.054c0-.011 0-.011.011-.023 4.048-15.367 9.414-30.531 16.911-44.398.226-.417.451-.846.699-1.263 3.414-6.232 7.332-12.175 11.714-17.768a115.29 115.29 0 0 1 7.678-8.783c7.005-7.211 15.101-13.276 23.991-17.971 17.723-9.358 38.242-12.943 57.183-7.227l1.443.451z" fill="#f0f0f0"/><g fill="#fff"><path d="M902.614 533.676a119.36 119.36 0 0 0-64.137 35.771 51.4 51.4 0 0 0-9.223 13.202 29.48 29.48 0 0 0-2.378 15.332c.453 4.889 1.482 9.837.738 14.751a18.05 18.05 0 0 1-8.168 12.297c-5.272 3.524-11.496 4.944-17.631 6.12-6.811 1.306-13.907 2.556-19.592 6.81-.689.515-1.448-.583-.761-1.098 9.891-7.402 23.145-5.849 33.964-11.075 5.049-2.438 9.393-6.413 10.644-12.063 1.094-4.94.037-10.044-.464-14.99a31.46 31.46 0 0 1 1.767-15.078 47.52 47.52 0 0 1 8.681-13.508 115.8 115.8 0 0 1 27.94-23.006c11.901-7.093 24.927-12.098 38.516-14.798.841-.167.938 1.166.103 1.332z"/><path d="M843.632 563.209a17.91 17.91 0 0 1 .41-23.185c.57-.643 1.596.213 1.025.857-5.412 6.124-5.555 15.278-.338 21.568.548.662-.553 1.419-1.098.761zm-17.312 32.324c8.633.934 17.301-1.419 24.275-6.592.691-.513 1.45.586.761 1.098a35.9 35.9 0 0 1-25.274 6.808c-.856-.095-.613-1.409.239-1.314zm49.804-53.727c1.578 3.023 4.571 5.05 7.964 5.394.857.084.613 1.398-.239 1.314a11.36 11.36 0 0 1-8.823-5.948.69.69 0 0 1 .169-.929.67.67 0 0 1 .929.169z"/></g><path d="M604.622 396.977c2.07-2.138 3.086-5.084 2.775-8.043a10.06 10.06 0 0 0-4.385-7.292l9.136-34.547-17.601 5.92-5.977 31.899a10.11 10.11 0 0 0 16.052 12.063zm81.433 232.052l-12.26-.001-5.832-47.288 18.094.001-.002 47.288z" fill="#9e616a"/><path d="M689.182 640.913l-39.531-.001v-.5a15.39 15.39 0 0 1 15.386-15.386h.001l24.144.001z" fill="#2f2e41"/><path fill="#9e616a" d="M628.055 629.029l-12.26-.001-5.832-47.288 18.094.001-.002 47.288z"/><path d="M631.182 640.913l-39.531-.001v-.5a15.39 15.39 0 0 1 15.386-15.386h.001l24.144.001zm-9.946-296.804l-4.706 1.3s-12.294 79.7-13.294 121.7 3 148 3 148h26l21-180 10 180h28s20-236 11-255-81-16-81-16z" fill="#2f2e41"/><circle cx="658.744" cy="179.984" r="23.493" fill="#9e616a"/><g fill="#3f3d56"><path d="M718.236 234.109l-36.464-23.83-37.786 1.488-36.75 20.342 14 78-6 45s54-6 66 3c7.008 5.34 15.274 8.784 24 10l-2-77z"/><path d="M614.236 231.109l-3.778-.784-3.222 1.784s-9 12-9 23-11 117-11 117l20 9 16-83z"/></g><path d="M679.317 162.759s6.144-11.746-7.374-12.814c0 0-11.524-10.454-23.271-1.911 0 0-6.407 0-9.911 7.25 0 0-5.039-1.911-6.147 3.204 0 0-3.687 10.679 0 20.289s4.912 10.679 4.912 10.679-6.059-20.149 8.689-21.217 31.252-10.285 32.481 1.462 3.079 14.641 3.079 14.641 11.674-16.776-2.459-21.582z" fill="#2f2e41"/><path d="M375.736 300.964h-291v-218h291z" fill="#fff"/><path d="M375.736 300.964h-291v-218h291zm-288-215v212h285v-212z" fill="#e6e6e6"/><circle cx="230.145" cy="192.373" r="55.409" fill="#6c63ff"/><path d="M253.154 187.72h-18.839v-18.839c0-2.448-1.985-4.433-4.433-4.433h0c-2.448 0-4.433 1.985-4.433 4.433v18.839H206.61c-2.448 0-4.433 1.985-4.433 4.433h0 0c0 2.448 1.985 4.433 4.433 4.433h18.839v18.839c0 2.448 1.985 4.433 4.433 4.433h0c2.448 0 4.433-1.985 4.433-4.433v-18.839h18.839c2.448 0 4.433-1.985 4.433-4.433h0 0c0-2.448-1.985-4.433-4.433-4.433h0zM108.739 82.054H0V0h108.739z" fill="#fff"/><path d="M108.739 82.054H0V0h108.739zM2 80.054h104.739V2H2z" fill="#e6e6e6"/><path d="M14.342 22.348h80.054v5.337H14.342zm0 16.01h80.054v5.337H14.342zm0 16.011h80.054v5.337H14.342z" fill="#e4e4e4"/><path d="M831.739 641.054H723V559h108.739z" fill="#fff"/><path d="M831.739 641.054H723V559h108.739zm-106.739-2h104.739V561H725z" fill="#e6e6e6"/><path d="M737.342 581.348h80.054v5.337h-80.054zm0 16.01h80.054v5.337h-80.054zm0 16.011h80.054v5.337h-80.054z" fill="#e4e4e4"/><path d="M765.701 493.822l-81.221-72.3 54.557-61.289 81.221 72.3z" fill="#fff"/><path d="M765.701 493.822l-81.221-72.3 54.557-61.289 81.221 72.3zm-78.398-72.464l78.233 69.64 51.898-58.302-78.233-69.64z" fill="#e6e6e6"/><path d="M731.343 390.447l3.549-3.986 59.795 53.227-3.549 3.986zm-10.645 11.959l3.549-3.986 59.795 53.227-3.549 3.986zm-10.646 11.959l3.549-3.986 59.795 53.227-3.549 3.986z" fill="#e4e4e4"/><path d="M170.307 130.054H49V38.517h121.307z" fill="#fff"/><path d="M170.307 130.054H49V38.517h121.307zm-119.075-2.231h116.844V40.748H51.231z" fill="#e6e6e6"/><path d="M65 63.448h89.306v5.954H65zm0 17.86h89.306v5.954H65zm0 17.861h89.306v5.954H65z" fill="#6c63ff"/><path d="M485.117 369.688H300V230h185.117z" fill="#fff"/><path d="M485.117 369.688H300V230h185.117zm-181.712-3.405h178.307V233.405H303.405z" fill="#e6e6e6"/><path d="M324.416 268.045h136.283v9.086H324.416zm0 27.255h136.283v9.086H324.416zm0 27.258h136.283v9.086H324.416z" fill="#6c63ff"/><path d="M923.576 641.989H443.282a1.19 1.19 0 1 1 0-2.381h480.294a1.19 1.19 0 1 1 0 2.381z" fill="#cacaca"/><path d="M705.805 396.224c-1.45-2.599-1.674-5.707-.612-8.487s3.3-4.947 6.114-5.918l.06-35.735 15.485 10.249-2.431 32.363a10.11 10.11 0 0 1-18.615 7.527z" fill="#9e616a"/><path d="M707.236 238.109l6.918-6.668 5.082 3.668s5 6 9 24 0 117 0 117l-22-3 3-52-9-44z" fill="#3f3d56"/></svg>