<svg xmlns="http://www.w3.org/2000/svg" xmlns:xlink="http://www.w3.org/1999/xlink" width="876" height="554" xmlns:v="https://vecta.io/nano"><g fill="#e6e6e6"><path d="M354 256H17c-9.384-.011-16.989-7.616-17-17V50c.011-9.384 7.616-16.989 17-17h337c9.384.011 16.989 7.616 17 17v189c-.011 9.384-7.616 16.989-17 17zM17 35A15.02 15.02 0 0 0 2 50v189a15.02 15.02 0 0 0 15 15h337a15.02 15.02 0 0 0 15-15V50a15.02 15.02 0 0 0-15-15z"/><use xlink:href="#B"/><use xlink:href="#C"/><use xlink:href="#C" y="29.187"/><path d="M154 214.5H42c-5.796-.007-10.493-4.704-10.5-10.5V79c.007-5.796 4.704-10.493 10.5-10.5h112c5.796.007 10.493 4.704 10.5 10.5v125c-.007 5.796-4.704 10.493-10.5 10.5z"/><circle cx="362" cy="36" r="36"/></g><g fill="#3f3d56"><path d="M832 256H495c-9.384-.011-16.989-7.616-17-17V50c.011-9.384 7.616-16.989 17-17h337c9.384.011 16.989 7.616 17 17v189c-.011 9.384-7.616 16.989-17 17zM495 35a15.02 15.02 0 0 0-15 15v189a15.02 15.02 0 0 0 15 15h337a15.02 15.02 0 0 0 15-15V50a15.02 15.02 0 0 0-15-15z"/><use xlink:href="#B" x="478"/><use xlink:href="#C" x="478"/><use xlink:href="#C" x="478" y="29.187"/></g><g fill="#6c63ff"><path d="M632 214.5H520c-5.796-.007-10.493-4.704-10.5-10.5V79c.007-5.796 4.704-10.493 10.5-10.5h112c5.796.007 10.493 4.704 10.5 10.5v125c-.007 5.796-4.704 10.493-10.5 10.5z"/><circle cx="840" cy="36" r="36"/></g><use xlink:href="#D" fill="#fff"/><g fill="#3f3d56"><path d="M354 554H17c-9.384-.011-16.989-7.616-17-17V348c.011-9.384 7.616-16.989 17-17h337c9.384.011 16.989 7.616 17 17v189c-.011 9.384-7.616 16.989-17 17zM17 333a15.02 15.02 0 0 0-15 15v189a15.02 15.02 0 0 0 15 15h337a15.02 15.02 0 0 0 15-15V348a15.02 15.02 0 0 0-15-15z"/><use xlink:href="#B" y="298"/><use xlink:href="#C" y="298"/><use xlink:href="#C" y="327.187"/></g><g fill="#6c63ff"><path d="M154 512.5H42c-5.796-.007-10.493-4.704-10.5-10.5V377c.007-5.796 4.704-10.493 10.5-10.5h112c5.796.007 10.493 4.704 10.5 10.5v125c-.007 5.796-4.704 10.493-10.5 10.5z"/><circle cx="362" cy="334" r="36"/></g><use xlink:href="#D" x="-478" y="298" fill="#fff"/><g fill="#3f3d56"><path d="M832 554H495c-9.384-.011-16.989-7.616-17-17V348c.011-9.384 7.616-16.989 17-17h337c9.384.011 16.989 7.616 17 17v189c-.011 9.384-7.616 16.989-17 17zM495 333a15.02 15.02 0 0 0-15 15v189a15.02 15.02 0 0 0 15 15h337a15.02 15.02 0 0 0 15-15V348a15.02 15.02 0 0 0-15-15z"/><use xlink:href="#B" x="478" y="298"/><use xlink:href="#C" x="478" y="298"/><use xlink:href="#C" x="478" y="327.187"/></g><g fill="#6c63ff"><path d="M632 512.5H520c-5.796-.007-10.493-4.704-10.5-10.5V377c.007-5.796 4.704-10.493 10.5-10.5h112c5.796.007 10.493 4.704 10.5 10.5v125c-.007 5.796-4.704 10.493-10.5 10.5z"/><circle cx="840" cy="334" r="36"/></g><g fill="#fff"><use xlink:href="#D" y="298"/><use xlink:href="#E"/><path d="M557.946 165.196h8.217v1.526h-8.217zm25.936 0h8.217v1.526h-8.217z"/><use xlink:href="#F"/><use xlink:href="#E" y="294"/><path d="M557.946 459.196h8.217v1.526h-8.217zm25.936 0h8.217v1.526h-8.217z"/><use xlink:href="#F" y="294"/><path d="M96.703 483.663c-2.522-.07-5.661-.159-8.078-1.924-1.457-1.108-2.351-2.804-2.441-4.633a4.17 4.17 0 0 1 1.419-3.427 5.38 5.38 0 0 1 5.094-.733l-2.059-15.048 1.512-.207 2.421 17.69-1.262-.579c-1.463-.671-3.472-1.012-4.721.042a2.68 2.68 0 0 0-.879 2.208 4.69 4.69 0 0 0 1.816 3.454c1.881 1.374 4.383 1.552 7.221 1.631zm-21.757-24.467h8.217v1.526h-8.217zm25.936 0h8.217v1.526h-8.217z"/><use xlink:href="#G"/></g><g fill="#3f3d56"><use xlink:href="#E" x="-483" y="2"/><path d="M74.946 167.196h8.217v1.526h-8.217zm25.936 0h8.217v1.526h-8.217z"/><use xlink:href="#G" y="-292"/></g><defs ><path id="B" d="M268.6 108.313h-65a4.5 4.5 0 1 0 0 9h65a4.5 4.5 0 1 0 0-9z"/><path id="C" d="M331.96 136.813h-129.22c-2.01 0-3.64 2.02-3.64 4.5s1.63 4.5 3.64 4.5h129.22c2.01 0 3.64-2.02 3.64-4.5s-1.63-4.5-3.64-4.5z"/><path id="D" d="M837.976 50.573c-.982.002-1.937-.316-2.723-.904l-.049-.037-10.254-7.85c-1.296-.989-1.964-2.594-1.754-4.21s1.268-2.996 2.774-3.62 3.23-.396 4.521.598l6.641 5.093 15.695-20.468c.735-.959 1.821-1.586 3.019-1.744s2.409.166 3.368.901l-.098.132.1-.131a4.56 4.56 0 0 1 .843 6.387l-18.461 24.076c-.865 1.124-2.205 1.782-3.624 1.778z"/><path id="E" d="M579.703 189.663c-2.522-.07-5.661-.159-8.078-1.924-1.457-1.108-2.351-2.804-2.441-4.632-.089-1.301.436-2.569 1.419-3.427 1.464-1.093 3.382-1.369 5.094-.733l-2.059-15.048 1.512-.207 2.421 17.69-1.262-.579c-1.463-.671-3.472-1.012-4.721.042a2.68 2.68 0 0 0-.879 2.208 4.69 4.69 0 0 0 1.816 3.454c1.881 1.374 4.383 1.552 7.221 1.631z"/><path id="F" d="M543.67 144.128c-6.617-.755-11.742-7.095-12.305-13.527-.67-7.653 3.787-14.921 9.902-19.216 6.394-4.491 14.361-6.366 22.069-6.779 15.037-.748 29.814 4.123 41.459 13.665 5.776 4.797 11.17 10.908 13.214 18.288 1.775 6.41.331 13.672-4.825 18.161-2.578 2.224-5.969 3.268-9.352 2.879-4-.415-7.691-2.519-10.886-4.842-6.215-4.519-11.317-10.813-18.888-13.175-5.552-1.731-12.756-.207-16.149 4.813a9.14 9.14 0 0 0-1.459 3.828c-.145.606.204 1.222.799 1.408a1.15 1.15 0 0 0 1.408-.799c.891-6.323 8.666-8.683 14.122-7.239 7.955 2.106 13.296 9.204 19.822 13.715a24.09 24.09 0 0 0 11.544 4.608c3.628.285 7.229-.822 10.072-3.094 5.576-4.403 7.708-11.976 6.475-18.794-1.428-7.896-6.742-14.663-12.573-19.902-11.821-10.509-27.167-16.178-42.981-15.878-8.066.185-16.482 1.85-23.431 6.114-6.74 4.135-11.95 11.053-12.631 19.095-.599 7.078 3.198 14.482 9.717 17.583a15.22 15.22 0 0 0 4.876 1.376c1.461.167 1.449-2.123 0-2.288z"/><path id="G" d="M60.67 438.128c-6.617-.755-11.742-7.095-12.305-13.527-.67-7.653 3.787-14.921 9.902-19.216 6.394-4.491 14.361-6.366 22.069-6.779 15.037-.748 29.814 4.123 41.459 13.665 5.776 4.797 11.17 10.908 13.214 18.288 1.776 6.41.331 13.672-4.825 18.161-2.578 2.224-5.969 3.268-9.352 2.879-4-.415-7.691-2.519-10.886-4.842-6.215-4.519-11.317-10.813-18.888-13.175-5.552-1.731-12.756-.207-16.149 4.813a9.14 9.14 0 0 0-1.459 3.828c-.145.606.204 1.222.799 1.408a1.15 1.15 0 0 0 1.408-.799c.891-6.323 8.666-8.683 14.122-7.239 7.955 2.106 13.296 9.204 19.822 13.715a24.09 24.09 0 0 0 11.544 4.608c3.628.285 7.229-.822 10.072-3.094 5.576-4.403 7.708-11.976 6.475-18.794-1.428-7.896-6.742-14.663-12.573-19.902-11.821-10.509-27.167-16.178-42.981-15.878-8.066.185-16.482 1.85-23.431 6.114-6.74 4.135-11.95 11.053-12.631 19.095-.599 7.078 3.198 14.482 9.717 17.583a15.22 15.22 0 0 0 4.876 1.376c1.461.167 1.449-2.123 0-2.288z"/></defs></svg>