<svg xmlns="http://www.w3.org/2000/svg" xmlns:xlink="http://www.w3.org/1999/xlink" width="675.67" height="631.947" xmlns:v="https://vecta.io/nano"><g fill="#f2f2f2"><path d="M624.592 483.458l30.311 4.737c10.26-12.423 17.333-27.162 20.604-42.939-22.164 18.143-55.869 8.502-82.745 18.407a59.54 59.54 0 0 0-35.62 37.344l-14.813 15.937a99.77 99.77 0 0 0 83.411-4.592 96.37 96.37 0 0 0 19.64-14.099c-10.606-6.678-20.788-14.794-20.788-14.794z"/><path d="M613.831 434.981l29.242-9.278c3.643-15.695 3.4-32.042-.708-47.621-11.746 26.123-46.214 32.526-65.851 53.377a59.54 59.54 0 0 0-15.227 49.31l-6.151 20.871a99.77 99.77 0 0 0 72.609-41.31c4.646-6.624 8.439-13.807 11.291-21.379-12.471-1.247-25.205-3.97-25.205-3.97z"/></g><path d="M675.67 526.598c.001.316-.124.619-.348.843s-.527.348-.843.347H1.19a1.19 1.19 0 1 1 0-2.38h673.29c.316-.001.619.124.842.348s.348.527.348.842z" fill="#ccc"/><circle cx="278.998" cy="260.866" r="215" fill="#e6e6e6"/><path d="M463.998 260.866c.044 58.538-27.657 113.632-74.67 148.51-1.55 1.16-3.13 2.29-4.72 3.39-63.491 44.133-147.729 44.133-211.22 0-1.59-1.1-3.17-2.23-4.72-3.39a185.02 185.02 0 0 1 0-297.02c1.55-1.16 3.13-2.29 4.72-3.39 63.491-44.133 147.729-44.133 211.22 0 1.59 1.1 3.17 2.23 4.72 3.39 47.013 34.878 74.714 89.972 74.67 148.51z" fill="#fff"/><circle cx="278.998" cy="260.866" r="169" fill="#6c63ff"/><path d="M279.439 92.338l-7.642.18c88.637 7.789 156.052 82.973 154.164 171.932s-72.432 161.215-161.32 165.236a171.09 171.09 0 0 0 14.799.652c93.336 0 169-75.664 169-169s-75.664-169-169-169z" opacity=".2"/><g fill="#fff"><path d="M279.498 79.866a5.51 5.51 0 0 0-5.5 5.5v24a5.5 5.5 0 1 0 11 0v-24a5.51 5.51 0 0 0-5.5-5.5zm109.83 32.49l-4.72-3.39c-1.941-.127-3.805.782-4.9 2.39l-13.51 19.83a5.5 5.5 0 0 0 1.45 7.64 5.5 5.5 0 0 0 7.64-1.45l13.51-19.83c1.044-1.529 1.244-3.482.53-5.19z"/><use xlink:href="#B"/><path d="M191.798 131.186l-13.51-19.83c-1.095-1.608-2.959-2.517-4.9-2.39l-4.72 3.39c-.714 1.708-.514 3.661.53 5.19l13.51 19.83a5.5 5.5 0 0 0 7.64 1.45 5.5 5.5 0 0 0 1.45-7.64zm-55.11 77.6l-22.24-9.03a5.5 5.5 0 0 0-4.14 10.19l22.24 9.03a5.5 5.5 0 0 0 4.14-10.19zm142.81 198.08a5.51 5.51 0 0 0-5.5 5.5v24a5.5 5.5 0 1 0 11 0v-24a5.51 5.51 0 0 0-5.5-5.5zm109.3-2.68l-13.51-19.83a5.5 5.5 0 0 0-7.64-1.45 5.5 5.5 0 0 0-1.45 7.64l13.51 19.83c1.095 1.608 2.959 2.517 4.9 2.39l4.72-3.39c.714-1.708.514-3.661-.53-5.19zm58.89-92.4l-22.24-9.03a5.5 5.5 0 0 0-4.14 10.19l22.24 9.03a5.5 5.5 0 0 0 4.14-10.19zm-257.34 71.12a5.5 5.5 0 0 0-7.64 1.45l-13.51 19.83c-1.044 1.529-1.244 3.482-.53 5.19l4.72 3.39c1.941.127 3.805-.782 4.9-2.39l13.51-19.83a5.5 5.5 0 0 0-1.45-7.64z"/><use xlink:href="#B" x="-311" y="103"/></g><g fill="#3f3d56"><path d="M286.634 258.137c1.057 6.26-3.152 12.194-9.409 13.266l-97.598 16.601c-6.261 1.065-12.201-3.147-13.266-9.409s3.147-12.201 9.409-13.266l97.598-16.601c6.26-1.057 12.194 3.152 13.266 9.409z"/><path d="M389.353 366.268a7.51 7.51 0 0 1-10.607.042L273.684 262.071a7.5 7.5 0 0 1 10.565-10.648l105.063 104.239a7.51 7.51 0 0 1 .042 10.607z"/></g><circle cx="278.998" cy="260.866" r="13" fill="#ccc"/><g fill="#e6e6e6"><path d="M189.454 35.445c-19.955 31.373-50.401 52.193-87.95 65.87a7.06 7.06 0 0 1-9.882-1.418h0c-20.395-27.233-15.79-66.153 11.128-86.962A62.07 62.07 0 0 1 149.012.568a62.07 62.07 0 0 1 41.296 24.242l.564.753a7.06 7.06 0 0 1-1.418 9.882zM367.687 24.81A62.07 62.07 0 0 1 408.984.568a62.07 62.07 0 0 1 46.261 12.367c26.918 20.809 31.524 59.729 11.128 86.962h0a7.06 7.06 0 0 1-9.882 1.418c-34.857-13.345-63.442-36.439-87.95-65.87a7.06 7.06 0 0 1-1.418-9.882zm-8.746 422.324a5.51 5.51 0 0 0-2.114 7.485l31.742 56.723a5.5 5.5 0 0 0 9.599-5.372l-31.742-56.723a5.51 5.51 0 0 0-7.485-2.114zm-167.372 2.114l-31.742 56.723a5.5 5.5 0 0 0 9.599 5.372l31.742-56.723a5.5 5.5 0 1 0-9.599-5.371z"/><circle cx="394.998" cy="508.866" r="17"/><circle cx="406.998" cy="73.866" r="17"/><circle cx="277.998" cy="33.866" r="17"/><circle cx="154.998" cy="71.866" r="17"/><circle cx="165.998" cy="508.866" r="17"/></g><path d="M381.663 356.707c1.357 2.124 3.584 3.538 6.084 3.862s5.014-.476 6.867-2.185l26.676 14.293-1.431-15.661-25.112-11.172c-3.146-2.988-8.029-3.151-11.367-.379s-4.075 7.602-1.716 11.243z" fill="#ffb7b7"/><path d="M401.099 362.172l10.453-14.43 50.36 23.807 62.667-11.758a21.47 21.47 0 0 1 25.43 21.063h0c.009 11.853-9.579 21.476-21.431 21.51l-71.816.133z" fill="#3f3d56"/><path d="M384.999 611.399l-10.577-5.058 14.529-44.208 15.609 7.466-19.561 41.8zm70.906-7.127l-2.315 1.43-4.669 2.797-2.362 1.367v.023l-.047.008-.016.008-1.196.295-1.717-4.537-.792-2.09-1.119-2.96-2.051-5.415-10.799-28.511 16.788-4.141.629 2.572h.008l.311 1.274 5.865 23.788 1.196 4.863.039.148.722 2.905.622 2.517.691 2.812z" fill="#ffb7b7"/><g fill="#2f2e41"><path d="M556.053 504.147l-3.247 5.096q-3.053 4.708-6.269 9.276c0 .008-.008.008-.016.016-1.251 1.159-2.633 2.168-4.117 3.006-.062.047-.132.078-.194.117a15.18 15.18 0 0 1-3.465 1.391l-1.313.326-4.669.971-8.173 1.057-.653.054c-11.117.816-21.939-.497-33.235-2.649-5.578-1.057-11.272-2.323-17.169-3.636l-5.819-1.29-.458-.101-8.553-1.818-11.381-2.175.28 5.539a41.69 41.69 0 0 0 2.626 12.453c1.678 4.91 3.006 8.794.202 16.881l-1.352 3.915a13.37 13.37 0 0 1-1.375 11.832l-.272.412 11.272 28.519.73 1.849h-5.772l-7.101.008h-12.034l-17.363-34.835-.831-1.663v-.085l1.795-66.943c.023-.59.07-1.189.148-1.779.639-5.422 3.43-10.36 7.745-13.704a19.6 19.6 0 0 1 14.597-3.993l5.943.769 12.143 1.569 8.553 1.111.171.023 25.225 3.263 1.81-7.38.334-.124 10.62-3.892 36.731-13.463.093-.031 2.416-.886.287.466.249.42a72 72 0 0 1 5.803 13.471c2.473 7.639 4.509 15.412 6.098 23.283q.105.513.186.932l.023.085c.023.132.039.217.047.241.847 3.527.256 7.831-1.297 12.096z"/><path d="M557.604 479.477l-.419-1.492a106.29 106.29 0 0 0-4.304-10.892c-1.833-4.04-4.032-8.367-6.65-13.051q-1.899-3.403-4.086-7.077-1.095-1.841-2.276-3.752a1.97 1.97 0 0 0-.101-.171l-.225-.373-36.342 4.863-13.533 1.81-.808 6.743-.194 1.67-.544 4.56v.008l-.722 6.013-.062-.008-20.082-2.603-20.696-2.68-11.117-1.437a19.59 19.59 0 0 0-14.597 3.993 20.36 20.36 0 0 0-7.745 13.704c-.07.544-.117 1.103-.14 1.655l-10.488 24.852a160.32 160.32 0 0 0-11.855 46.643l-7.691 24.588 1.095.101 16.299 1.515 4.304.404 9.478-13.836c1.08-1.577 2.105-3.201 3.061-4.863a73.86 73.86 0 0 0 4.187-8.421l20.502-48.788q2.377.408 4.708.777 10.779 1.748 20.696 2.851c21.496 2.401 40.11 2.587 56.681.552q6.98-.851 13.494-2.237 2.389-.501 4.716-1.08l1.08-.264c6.524-1.682 11.747-6.563 13.867-12.958a20.23 20.23 0 0 0 .513-11.319zM388.377 604.18l-11.443-5.485-1.795-.862-2.867 7.038-20.012 4.405a4.75 4.75 0 0 0-.777 9.035l19.554 7.979 6.207-5.586-1.523 7.497 7.365 3.006 8.072-25.691zm70.326-10.84l.731 1.849h-.731v-1.849zm-3.985 2.244l-11.991 4.154-1.882.65 2.915 7.018-11.121 17.211a4.75 4.75 0 0 0 5.805 6.967l19.508-8.089.48-8.337 4.193 6.398 7.349-3.046-12.341-23.935z"/></g><path d="M554.613 490.732c-.712-.001-1.413-.175-2.043-.507l-63.274-33.062-.731-2.993-1.378-9.472.019-.089 6.018-27.743c-.11-.238-.341-.629-.601-1.07-2.687-4.552-10.862-18.405 4.741-37.48l27.395-31.939 23.513-1.012.268.338c12.769 16.027 16.676 37.378 10.41 56.889l-2.448 44.217 2.626 8.93a24.64 24.64 0 0 1-.722 15.944l.602 14.459c.047 1.198-.394 2.363-1.223 3.229s-1.973 1.358-3.172 1.363z" fill="#3f3d56"/><path d="M499.727 527.198c2.17-1.282 3.661-3.459 4.071-5.946s-.302-5.027-1.945-6.939l15.213-26.162-15.702.885-12.039 24.708c-3.096 3.04-3.428 7.914-.775 11.347s7.455 4.337 11.176 2.106z" fill="#ffb7b7"/><path d="M505.866 507.963l-14.057-10.949 25.544-49.501-9.571-63.038a21.47 21.47 0 0 1 21.934-24.682h0c11.846.403 21.13 10.32 20.752 22.166l-2.365 71.777z" fill="#3f3d56"/><path d="M509.677 333.104v-23.267c-.011-17.219 13.938-31.186 31.157-31.197s31.186 13.938 31.197 31.157v.04c5.495 11.451 2.057 16.894 0 23.267-.004 2.31-1.876 4.182-4.186 4.186h-53.98c-2.311-.003-4.184-1.875-4.188-4.186z" fill="#2f2e41"/><circle cx="530.632" cy="312.441" r="23.337" fill="#ffb7b7"/><path d="M555.055 318.559l-.635-.111-10.91-1.937-.334-8.227-4.397 7.369c-10.03 3.329-19.415 1.447-28.242-2.705-2.912-1.382-5.737-2.94-8.461-4.664a30.93 30.93 0 0 1 15.196-21.886 21.36 21.36 0 0 1 .991-.523c.579-.278 1.158-.534 1.737-.768a25.71 25.71 0 0 1 26.985 5.232c7.125 6.802 10.331 18.034 8.071 28.22z" fill="#2f2e41"/><defs ><path id="B" d="M450.708 202.776c-.549-1.35-1.611-2.427-2.954-2.994s-2.856-.576-4.206-.026l-22.24 9.03a5.5 5.5 0 0 0 4.14 10.19l22.24-9.03c2.809-1.151 4.159-4.356 3.02-7.17z"/></defs></svg>